<svg width="150" height="150" viewBox="0 0 150 150" fill="none" xmlns="http://www.w3.org/2000/svg">
<path d="M118.536 2.08882L75.0417 58.9652L31.4634 2.08773L31.0131 1.50001H30.2727H3H1.5V3.00001V17.9833V19.4833H3H21.0114L63.0416 74.6575L20.3305 130.51L3.01328 130.357L1.5 130.343V131.857V146.84V148.331L2.99097 148.34L29.5654 148.5L30.3122 148.504L30.7659 147.911L74.8921 90.2141L105.472 130.357H88.5V120.869V119.369H87H70.6364H69.1364V120.869V130.357V131.857V146.84V148.34H70.6364H87H88.5H118.227H119.727H132.818H134.318H147H148.5V146.84V131.857V130.357H147H134.318H132.818H129.74L95.3032 85.41H114.955V94.8978V96.3978H116.455H132.818H134.318V94.8978V85.41V83.91V68.9267V67.4267H132.818H116.455H114.955H92.3197L128.986 19.4833H147H148.5V17.9833V3.00001V1.50001L147 1.50001L119.727 1.5L118.986 1.5L118.536 2.08882Z" fill="#D9D9D9" stroke="#D9D9D9" stroke-width="3"/>
</svg>
